<?xml version="1.0" encoding="UTF-8" standalone="no"?>
<!-- Generator: Adobe Illustrator 18.0.0, SVG Export Plug-In . SVG Version: 6.00 Build 0)  -->

<svg
   xmlns:dc="http://purl.org/dc/elements/1.1/"
   xmlns:cc="http://creativecommons.org/ns#"
   xmlns:rdf="http://www.w3.org/1999/02/22-rdf-syntax-ns#"
   xmlns:svg="http://www.w3.org/2000/svg"
   xmlns="http://www.w3.org/2000/svg"
   xmlns:sodipodi="http://sodipodi.sourceforge.net/DTD/sodipodi-0.dtd"
   xmlns:inkscape="http://www.inkscape.org/namespaces/inkscape"
   version="1.1"
   id="Capa_1"
   x="0px"
   y="0px"
   viewBox="0 0 203.536 203.536"
   style="enable-background:new 0 0 203.536 203.536;"
   xml:space="preserve"
   sodipodi:docname="book.svg"
   inkscape:version="0.92.4 (5da689c313, 2019-01-14)"><metadata
   id="metadata1059"><rdf:RDF><cc:Work
       rdf:about=""><dc:format>image/svg+xml</dc:format><dc:type
         rdf:resource="http://purl.org/dc/dcmitype/StillImage" /><dc:title></dc:title></cc:Work></rdf:RDF></metadata><defs
   id="defs1057"><inkscape:path-effect
   fuse_tolerance="0"
   vertical_pattern="false"
   prop_units="false"
   tang_offset="0"
   normal_offset="0"
   spacing="0"
   scale_y_rel="false"
   prop_scale="0.17995948"
   copytype="single_stretched"
   pattern="M 0,5 C 0,2.24 2.24,0 5,0 7.76,0 10,2.24 10,5 10,7.76 7.76,10 5,10 2.24,10 0,7.76 0,5 Z"
   is_visible="true"
   id="path-effect1723"
   effect="skeletal" /><inkscape:path-effect
   simplifyJustCoalesce="false"
   simplifyindividualpaths="false"
   simplify_just_coalesce="false"
   simplify_individual_paths="false"
   helper_size="0"
   smooth_angles="360"
   threshold="0.5"
   steps="1"
   is_visible="true"
   id="path-effect1721"
   effect="simplify" /><inkscape:path-effect
   effect="skeletal"
   id="path-effect1717"
   is_visible="true"
   pattern="M 0,5 C 0,2.24 2.24,0 5,0 7.76,0 10,2.24 10,5 10,7.76 7.76,10 5,10 2.24,10 0,7.76 0,5 Z"
   copytype="single_stretched"
   prop_scale="0.17995948"
   scale_y_rel="false"
   spacing="0"
   normal_offset="0"
   tang_offset="0"
   prop_units="false"
   vertical_pattern="false"
   fuse_tolerance="0" /><inkscape:path-effect
   effect="simplify"
   id="path-effect1715"
   is_visible="true"
   steps="1"
   threshold="0.5"
   smooth_angles="360"
   helper_size="0"
   simplify_individual_paths="false"
   simplify_just_coalesce="false"
   simplifyindividualpaths="false"
   simplifyJustCoalesce="false" /><inkscape:path-effect
   fuse_tolerance="0"
   vertical_pattern="false"
   prop_units="false"
   tang_offset="0"
   normal_offset="0"
   spacing="0"
   scale_y_rel="false"
   prop_scale="0.17995948"
   copytype="single_stretched"
   pattern="M 0,5 C 0,2.24 2.24,0 5,0 7.76,0 10,2.24 10,5 10,7.76 7.76,10 5,10 2.24,10 0,7.76 0,5 Z"
   is_visible="true"
   id="path-effect1711"
   effect="skeletal" /><inkscape:path-effect
   simplifyJustCoalesce="false"
   simplifyindividualpaths="false"
   simplify_just_coalesce="false"
   simplify_individual_paths="false"
   helper_size="0"
   smooth_angles="360"
   threshold="0.5"
   steps="1"
   is_visible="true"
   id="path-effect1709"
   effect="simplify" /><inkscape:path-effect
   effect="skeletal"
   id="path-effect1705"
   is_visible="true"
   pattern="M 0,5 C 0,2.24 2.24,0 5,0 7.76,0 10,2.24 10,5 10,7.76 7.76,10 5,10 2.24,10 0,7.76 0,5 Z"
   copytype="single_stretched"
   prop_scale="0.17995948"
   scale_y_rel="false"
   spacing="0"
   normal_offset="0"
   tang_offset="0"
   prop_units="false"
   vertical_pattern="false"
   fuse_tolerance="0" /><inkscape:path-effect
   effect="simplify"
   id="path-effect1703"
   is_visible="true"
   steps="1"
   threshold="0.5"
   smooth_angles="360"
   helper_size="0"
   simplify_individual_paths="false"
   simplify_just_coalesce="false"
   simplifyindividualpaths="false"
   simplifyJustCoalesce="false" /><inkscape:path-effect
   fuse_tolerance="0"
   vertical_pattern="false"
   prop_units="false"
   tang_offset="0"
   normal_offset="0"
   spacing="0"
   scale_y_rel="false"
   prop_scale="0.17995948"
   copytype="single_stretched"
   pattern="M 0,5 C 0,2.24 2.24,0 5,0 7.76,0 10,2.24 10,5 10,7.76 7.76,10 5,10 2.24,10 0,7.76 0,5 Z"
   is_visible="true"
   id="path-effect1699"
   effect="skeletal" /><inkscape:path-effect
   simplifyJustCoalesce="false"
   simplifyindividualpaths="false"
   simplify_just_coalesce="false"
   simplify_individual_paths="false"
   helper_size="0"
   smooth_angles="360"
   threshold="0.5"
   steps="1"
   is_visible="true"
   id="path-effect1697"
   effect="simplify" /><inkscape:path-effect
   effect="skeletal"
   id="path-effect1693"
   is_visible="true"
   pattern="M 0,5 C 0,2.24 2.24,0 5,0 7.76,0 10,2.24 10,5 10,7.76 7.76,10 5,10 2.24,10 0,7.76 0,5 Z"
   copytype="single_stretched"
   prop_scale="0.17995948"
   scale_y_rel="false"
   spacing="0"
   normal_offset="0"
   tang_offset="0"
   prop_units="false"
   vertical_pattern="false"
   fuse_tolerance="0" /><inkscape:path-effect
   effect="simplify"
   id="path-effect1691"
   is_visible="true"
   steps="1"
   threshold="0.5"
   smooth_angles="360"
   helper_size="0"
   simplify_individual_paths="false"
   simplify_just_coalesce="false"
   simplifyindividualpaths="false"
   simplifyJustCoalesce="false" /><inkscape:path-effect
   fuse_tolerance="0"
   vertical_pattern="false"
   prop_units="false"
   tang_offset="0"
   normal_offset="0"
   spacing="0"
   scale_y_rel="false"
   prop_scale="0.17995948"
   copytype="single_stretched"
   pattern="M 0,5 C 0,2.24 2.24,0 5,0 7.76,0 10,2.24 10,5 10,7.76 7.76,10 5,10 2.24,10 0,7.76 0,5 Z"
   is_visible="true"
   id="path-effect1687"
   effect="skeletal" /><inkscape:path-effect
   simplifyJustCoalesce="false"
   simplifyindividualpaths="false"
   simplify_just_coalesce="false"
   simplify_individual_paths="false"
   helper_size="0"
   smooth_angles="360"
   threshold="0.5"
   steps="1"
   is_visible="true"
   id="path-effect1685"
   effect="simplify" /><inkscape:path-effect
   effect="skeletal"
   id="path-effect1681"
   is_visible="true"
   pattern="M 0,5 C 0,2.24 2.24,0 5,0 7.76,0 10,2.24 10,5 10,7.76 7.76,10 5,10 2.24,10 0,7.76 0,5 Z"
   copytype="single_stretched"
   prop_scale="0.17995948"
   scale_y_rel="false"
   spacing="0"
   normal_offset="0"
   tang_offset="0"
   prop_units="false"
   vertical_pattern="false"
   fuse_tolerance="0" /><inkscape:path-effect
   effect="simplify"
   id="path-effect1679"
   is_visible="true"
   steps="1"
   threshold="0.5"
   smooth_angles="360"
   helper_size="0"
   simplify_individual_paths="false"
   simplify_just_coalesce="false"
   simplifyindividualpaths="false"
   simplifyJustCoalesce="false" />
	
</defs><sodipodi:namedview
   pagecolor="#ffffff"
   bordercolor="#666666"
   borderopacity="1"
   objecttolerance="10"
   gridtolerance="10"
   guidetolerance="10"
   inkscape:pageopacity="0"
   inkscape:pageshadow="2"
   inkscape:window-width="1817"
   inkscape:window-height="1051"
   id="namedview1055"
   showgrid="false"
   inkscape:zoom="1.6397807"
   inkscape:cx="-23.642714"
   inkscape:cy="209.68623"
   inkscape:window-x="-9"
   inkscape:window-y="-9"
   inkscape:window-maximized="1"
   inkscape:current-layer="Capa_1" />

<g
   id="g1024">
</g>
<g
   id="g1026">
</g>
<g
   id="g1028">
</g>
<g
   id="g1030">
</g>
<g
   id="g1032">
</g>
<g
   id="g1034">
</g>
<g
   id="g1036">
</g>
<g
   id="g1038">
</g>
<g
   id="g1040">
</g>
<g
   id="g1042">
</g>
<g
   id="g1044">
</g>
<g
   id="g1046">
</g>
<g
   id="g1048">
</g>
<g
   id="g1050">
</g>
<g
   id="g1052">
</g>
<g
   id="g1780"><path
     d="m 202.489,163.453 c -0.046,0.018 -0.074,0.056 -0.118,0.075 0.599,-39.18 -1.064,-78.447 -1.668,-117.622 0.412,-0.35 0.602,-0.957 0.114,-1.423 -1.55,-1.482 -4.716,-3.61 -6.934,-2.766 -0.233,0.089 -0.408,0.278 -0.523,0.491 -0.2,-5.027 -0.609,-10.063 -1.411,-15.126 -0.173,-1.094 -1.437,-1.034 -2.001,-0.34 0.016,-0.451 -0.175,-0.903 -0.723,-1.196 C 162.441,11.27 126.603,12.94 103.17,33.147 96.209,22.297 79.365,16.919 67.542,14.219 50.81,10.397 33.953,11.628 17.738,17.034 c -0.496,0.165 -0.76,0.52 -0.873,0.916 -0.35,0.121 -0.66,0.365 -0.692,0.848 -0.429,6.365 -0.768,12.741 -1.066,19.122 -3.179,0.192 -6.812,0.735 -9.703,2.213 -0.35,-0.255 -0.971,-0.084 -1.043,0.488 -0.007,0.055 -0.011,0.11 -0.018,0.165 -0.323,0.212 -0.696,0.365 -0.99,0.61 -0.894,0.745 -0.176,1.769 0.712,1.986 -3.05,25.656 -3.832,51.938 -3.668,78.104 -0.536,-0.007 -0.528,0.813 0.011,0.863 0.109,15.383 0.534,30.724 1.019,45.871 0.02,0.63 0.406,1.016 0.872,1.165 0.168,0.24 0.399,0.423 0.747,0.396 28.715,-2.252 57.154,-3.458 85.953,-3.569 0.337,-10e-4 0.588,-0.121 0.79,-0.283 2.52,2.853 6.349,4.33 10.135,3.527 0.016,-0.003 0.025,-0.014 0.041,-0.018 -0.059,5.983 -0.088,11.973 -0.175,17.95 -0.012,0.821 0.526,1.273 1.147,1.399 -0.271,0.818 0.628,1.841 1.486,1.258 4.299,-2.919 8.39,-6.139 12.409,-9.432 3.358,3.357 6.701,7.272 10.82,9.507 0.324,0.176 0.654,0.118 0.946,-0.017 0.095,1.932 3.132,1.916 3.126,-0.079 -0.023,-7.215 0.022,-14.434 0.078,-21.655 22.985,-0.862 45.955,-0.474 68.918,-1.13 0.443,-0.013 0.714,-0.223 0.893,-0.492 0.226,0.211 0.59,0.313 0.878,0.179 1.166,-0.543 2.221,-1.185 2.933,-2.259 0.377,-0.569 -0.261,-1.479 -0.935,-1.214 z M 10.479,41.308 c 1.507,-0.53 3.028,-1.05 4.548,-1.557 C 14.522,50.984 14.213,62.238 13.962,73.495 13.917,73.419 13.843,73.36 13.735,73.337 11.542,72.882 9.258,72.823 7.03,72.633 6.659,72.601 6.566,73.238 6.941,73.29 c 2.213,0.311 4.453,0.768 6.69,0.814 0.165,0.003 0.264,-0.105 0.323,-0.232 -0.418,18.902 -0.62,37.819 -0.923,56.701 -2.902,-0.404 -5.818,-0.718 -8.737,-0.994 0.038,-2.425 0.095,-4.849 0.14,-7.273 1.831,-0.166 3.637,-0.535 5.367,-1.23 0.486,-0.195 0.308,-0.961 -0.222,-0.807 -1.711,0.499 -3.407,0.859 -5.126,1.063 0.042,-2.244 0.094,-4.488 0.14,-6.732 2.566,0.259 5.147,0.556 7.716,0.561 0.486,0.001 0.629,-0.796 0.119,-0.876 -2.575,-0.409 -5.204,-0.531 -7.814,-0.688 0.052,-2.534 0.108,-5.067 0.162,-7.6 1.756,0.074 3.488,-0.13 5.12,-0.855 0.472,-0.21 0.123,-0.898 -0.337,-0.799 -1.609,0.348 -3.154,0.537 -4.758,0.507 0.054,-2.512 0.096,-5.023 0.15,-7.534 2.016,0.026 4.033,0.051 6.041,-0.102 0.514,-0.039 0.515,-0.76 0,-0.799 -2.001,-0.152 -4.012,-0.129 -6.021,-0.103 0.04,-1.887 0.067,-3.774 0.106,-5.661 1.752,0.054 3.51,0.121 5.254,0.027 0.61,-0.033 0.611,-0.915 0,-0.948 -1.738,-0.094 -3.49,-0.028 -5.237,0.026 0.053,-2.591 0.088,-5.181 0.138,-7.772 2.474,0.874 5.148,1.203 7.754,0.939 0.677,-0.069 0.704,-1.115 0,-1.079 -2.657,0.139 -5.142,-0.066 -7.74,-0.628 0.088,-4.655 0.156,-9.31 0.223,-13.965 2.581,0.24 5.455,0.311 7.731,-0.627 0.668,-0.276 0.627,-1.288 -0.178,-1.315 -1.545,-0.052 -3.088,0.318 -4.633,0.401 -0.968,0.052 -1.931,-0.025 -2.894,-0.065 0.032,-2.407 0.023,-4.814 0.046,-7.222 2.112,-0.086 4.291,-0.142 6.285,-0.656 0.739,-0.191 0.538,-1.231 -0.173,-1.278 -1.981,-0.133 -4.075,0.203 -6.103,0.499 0.015,-1.665 0.016,-3.33 0.032,-4.996 2.476,-0.169 4.891,0.019 7.388,-0.019 0.78,-0.012 1.006,-1.241 0.19,-1.406 -2.442,-0.493 -5.079,-0.221 -7.57,0.212 0.022,-2.528 0.058,-5.057 0.049,-7.586 1.643,-0.471 3.24,-1.323 4.84,-1.885 z m -6.2,89.295 c 2.907,0.356 5.819,0.676 8.738,0.901 -0.061,3.712 -0.106,7.429 -0.18,11.138 -2.814,-0.281 -5.631,-0.538 -8.447,-0.8 -0.128,-0.012 -0.209,0.041 -0.286,0.096 0.034,-3.779 0.117,-7.557 0.175,-11.335 z m 95.71,36.304 c -0.129,-0.039 -0.264,-0.071 -0.419,-0.063 -3.182,0.175 -6.076,-0.492 -8.512,-2.678 -0.389,-0.349 -0.791,-0.312 -1.135,-0.152 -0.211,-0.238 -0.516,-0.405 -0.924,-0.424 -28.272,-1.312 -56.984,0.056 -85.01,4.039 -0.031,-2.107 -0.024,-4.212 -0.04,-6.319 13.895,0.531 27.765,0.008 41.543,-1.909 0.524,-0.073 0.406,-0.982 -0.126,-0.931 -13.801,1.31 -27.56,2.119 -41.422,2.123 -0.018,-2.566 0.043,-5.129 0.045,-7.695 24.731,1.516 49.719,1.368 74.425,-0.512 1.038,-0.079 1.062,-1.679 0,-1.636 -24.834,1.003 -49.567,1.495 -74.421,1.426 0.004,-3.165 0.075,-6.327 0.102,-9.491 0.077,0.075 0.164,0.145 0.294,0.159 2.808,0.304 5.616,0.612 8.427,0.896 -0.041,1.989 -0.06,3.983 -0.107,5.97 -0.031,1.318 1.458,1.659 2.271,1.042 0.201,0.044 0.418,0.023 0.628,-0.168 10.947,-9.958 26.769,-13.81 41.123,-15.59 8.153,-1.011 40.898,-3.374 42.271,8.218 0.088,0.742 0.621,1.171 1.205,1.311 -0.054,7.468 -0.148,14.923 -0.218,22.384 z m 0.257,-27.587 c -5.44,-6.965 -22.866,-8.061 -29.171,-8.179 -18.079,-0.339 -42.871,3.158 -55.544,17.382 0.036,-1.506 0.085,-3.015 0.125,-4.521 0.87,0.077 1.738,0.176 2.609,0.238 0.657,0.047 0.623,-0.923 0,-1.004 -0.858,-0.111 -1.72,-0.186 -2.58,-0.283 1.097,-41.015 3.3,-82.237 2.504,-123.234 0.094,-0.011 0.178,0 0.279,-0.032 26.323,-8.623 64.382,-7.084 84.077,15.481 0.033,0.038 0.076,0.026 0.112,0.055 -1.839,34.619 -2.157,69.373 -2.411,104.097 z m 26.327,48.62 c -2.733,-4.003 -7.021,-7.19 -10.527,-10.48 -0.646,-0.606 -1.525,-0.552 -2.18,0 -3.704,3.122 -7.421,6.238 -11.056,9.443 0.688,-50.68 2.674,-101.55 1.379,-152.221 -0.002,-0.056 -0.044,-0.076 -0.054,-0.125 8.313,-5.024 16.723,-8.856 25.236,-11.352 -4.077,54.59 -2.936,110.013 -2.798,164.735 z M 130.79,22.826 c 18.469,-5.085 37.425,-3.867 56.941,5.272 0.815,0.382 1.574,0.011 1.965,-0.572 0.001,0.061 -0.017,0.114 -0.007,0.178 5.779,36.715 -1.739,74.777 2.803,111.964 0.012,0.097 0.084,0.142 0.12,0.22 -0.094,-0.09 -0.191,-0.18 -0.331,-0.239 -19.908,-8.448 -41.497,-9.913 -62.097,-3.109 0.609,-37.923 1.497,-75.875 0.606,-113.714 z m 68.925,142.945 c -0.131,-0.422 -0.421,-0.803 -0.996,-0.855 -22.698,-2.092 -46.266,-0.803 -68.911,1.544 0.079,-9.335 0.198,-18.674 0.346,-28.016 20.873,-5.281 41.061,-4.358 61.066,3.721 1.136,0.459 2.016,-0.998 1.627,-1.929 0.471,0.323 1.23,0.166 1.188,-0.567 -1.164,-19.976 -2.153,-39.908 -1.513,-59.924 0.396,-12.371 1.288,-24.526 0.863,-36.727 0.038,0.058 0.049,0.123 0.107,0.175 0.786,0.708 1.537,0.792 2.537,1.129 0.911,0.307 1.742,0.733 2.567,1.186 -0.055,0.133 -0.166,0.218 -0.163,0.392 0.608,39.415 0.138,78.955 1.983,118.335 0.01,0.216 0.126,0.346 0.226,0.488 -0.327,0.321 -0.634,0.672 -0.927,1.048 z"
     id="path1020"
     inkscape:connector-curvature="0" /><path
     inkscape:connector-curvature="0"
     id="path1605"
     d="m 130.0243,157.45571 c 0.11145,-4.83318 0.20264,-11.06869 0.20264,-13.85668 v -5.06908 l 3.88772,-0.82754 c 8.99331,-1.91431 15.24914,-2.50018 24.13766,-2.26052 10.8757,0.29324 21.56158,2.38854 30.70491,6.02065 2.62786,1.0439 3.66349,1.0068 3.95171,-0.14156 0.10061,-0.40087 0.45507,-0.80001 0.78769,-0.88699 0.55197,-0.14435 0.58898,-0.3398 0.42404,-2.23947 -0.32456,-3.73813 -1.05247,-19.23255 -1.41565,-30.13386 -0.36982,-11.100722 -0.23444,-25.665157 0.35573,-38.267312 0.18456,-3.941076 0.42696,-11.432828 0.53866,-16.64834 l 0.20311,-9.482747 2.08558,0.845346 c 1.14706,0.464941 2.15865,0.918421 2.24796,1.007734 0.0893,0.08931 0.27883,13.924121 0.42115,30.744015 0.28373,33.533734 0.74635,62.687664 1.19395,75.242544 0.52618,14.75912 0.53961,13.59278 -0.15518,13.47666 -4.96668,-0.83005 -19.51788,-1.3828 -30.64435,-1.16407 -10.55933,0.20758 -16.26708,0.50978 -27.29023,1.44492 -4.02493,0.34145 -8.33543,0.70251 -9.5789,0.80236 l -2.26085,0.18154 z"
     style="opacity:1;vector-effect:none;fill:#6483a2;fill-opacity:1;stroke:#000000;stroke-width:0.57622457;stroke-linecap:butt;stroke-linejoin:miter;stroke-miterlimit:4;stroke-dasharray:none;stroke-dashoffset:0;stroke-opacity:1;marker:none" /><path
     inkscape:connector-curvature="0"
     id="path1607"
     d="m 3.9905528,164.47064 v -2.89673 l 9.2237942,-0.003 c 11.801222,-0.004 16.729122,-0.28552 30.188277,-1.72594 1.875538,-0.20072 2.79424,-0.65359 2.432347,-1.19902 -0.161101,-0.2428 -2.000371,-0.18673 -6.626295,0.20201 -10.616763,0.89218 -16.627398,1.2174 -26.146788,1.41474 l -9.0713352,0.18806 v -3.74664 -3.74664 l 2.6680397,0.19881 c 10.9117555,0.81311 37.7657295,1.05643 52.0870345,0.47196 10.059312,-0.41054 19.757755,-1.04712 20.209852,-1.32654 0.426813,-0.26378 0.46218,-1.2947 0.05309,-1.54753 -0.163311,-0.10093 -4.039592,-0.0411 -8.613956,0.13307 -13.333722,0.50754 -30.206936,0.89248 -48.871227,1.11493 l -17.3803728,0.20716 0.1048414,-4.54153 c 0.057663,-2.49785 0.1412681,-4.5794 0.1857898,-4.62569 0.083638,-0.0869 5.3506963,0.44671 7.1036506,0.71974 l 0.990986,0.15434 v 3.16606 c 0,2.54615 0.09932,3.26537 0.50729,3.67334 0.672426,0.67242 2.017837,0.39646 3.388099,-0.69495 5.55465,-4.42428 12.366568,-8.14826 18.821063,-10.28922 12.305923,-4.08189 29.492352,-6.21075 43.125126,-5.34186 12.641873,0.80574 18.927918,3.32886 20.332721,8.16122 0.262688,0.90361 0.671066,1.71717 0.907509,1.8079 0.355081,0.13626 0.429621,1.5787 0.428311,8.28892 -9.1e-4,4.46818 -0.09135,9.47985 -0.201082,11.13706 l -0.199506,3.01311 -2.076122,-0.17406 c -2.246553,-0.18834 -4.216338,-0.92429 -5.889388,-2.20039 -0.979646,-0.74721 -1.400855,-0.83143 -5.569851,-1.11362 -6.636315,-0.4492 -37.921263,-0.12146 -46.588855,0.48806 -10.121005,0.71172 -19.403391,1.59619 -27.576757,2.62762 -3.9309572,0.49606 -7.3269906,0.90193 -7.5467403,0.90193 -0.3014091,0 -0.3995449,-0.71149 -0.3995449,-2.89673 z"
     style="opacity:1;vector-effect:none;fill:#6483a2;fill-opacity:1;stroke:#000000;stroke-width:0.57622457;stroke-linecap:butt;stroke-linejoin:miter;stroke-miterlimit:4;stroke-dasharray:none;stroke-dashoffset:0;stroke-opacity:1;marker:none" /><path
     inkscape:connector-curvature="0"
     id="path1609"
     d="m 9.4790915,142.19419 c -0.251558,-0.0545 -1.5207826,-0.1875 -2.820499,-0.29556 l -2.3631209,-0.19647 v -5.46252 c 0,-3.63942 0.1077117,-5.46253 0.3227326,-5.46253 0.4299916,0 5.9695778,0.61025 7.2240078,0.7958 l 0.990987,0.14659 v 5.32226 5.32227 l -1.448365,-0.0354 c -0.7966,-0.0195 -1.6541844,-0.08 -1.9057425,-0.13447 z"
     style="opacity:1;vector-effect:none;fill:#6483a2;fill-opacity:1;stroke:#000000;stroke-width:0.57622457;stroke-linecap:butt;stroke-linejoin:miter;stroke-miterlimit:4;stroke-dasharray:none;stroke-dashoffset:0;stroke-opacity:1;marker:none" /><path
     inkscape:connector-curvature="0"
     id="path1611"
     d="m 8.4118757,129.92063 -3.9639447,-0.45925 0.090653,-3.22985 c 0.049859,-1.77642 0.1410848,-3.38214 0.2027233,-3.56827 0.061639,-0.18613 0.8328517,-0.43403 1.7138071,-0.5509 2.0677091,-0.27429 3.6338146,-0.93562 3.6338146,-1.53447 0,-0.56628 0.01884,-0.5662 -2.2868912,-0.009 -3.344003,0.80743 -3.2016476,0.92703 -3.2016476,-2.68997 v -3.14125 l 2.0582021,0.22886 c 1.1320111,0.12587 2.994454,0.2359 4.1387617,0.24451 1.821338,0.0137 2.06796,-0.0508 1.979432,-0.51795 -0.08233,-0.43444 -0.582323,-0.57861 -2.690398,-0.77579 -1.424098,-0.1332 -3.1724262,-0.31313 -3.885174,-0.39983 l -1.295905,-0.15765 v -3.59625 -3.59625 l 1.9802871,-0.18492 c 2.1781644,-0.2034 3.2033329,-0.61025 3.2033329,-1.27128 0,-0.35294 -0.4733673,-0.3984 -2.59181,-0.2489 l -2.59181,0.1829 0.00336,-2.40841 c 0.00185,-1.32462 0.088406,-2.922959 0.1923557,-3.551854 l 0.1889999,-1.143445 h 2.3796042 c 2.4415262,0 4.1149952,-0.391232 3.8067622,-0.889963 -0.09561,-0.154696 -1.5446058,-0.37845 -3.2199956,-0.497229 L 5.2102281,95.937807 v -2.541088 -2.541088 l 2.820499,-0.08767 c 2.2648659,-0.0704 2.8204989,-0.177774 2.8204989,-0.54505 0,-0.367276 -0.555633,-0.474649 -2.8204989,-0.54505 l -2.820499,-0.08767 v -3.477129 c 0,-1.912421 0.117678,-3.549858 0.2615068,-3.638749 0.1438288,-0.08889 0.726986,-0.0273 1.2959051,0.136857 1.940006,0.559792 5.998039,0.729318 6.547249,0.273514 0.456932,-0.37922 0.483547,-0.198345 0.318771,2.166326 -0.09888,1.419051 -0.251942,9.440767 -0.340132,17.82603 -0.184183,17.51241 -0.450515,27.61546 -0.726234,27.54899 -0.105311,-0.0254 -1.975249,-0.25282 -4.1554183,-0.5054 z"
     style="opacity:1;vector-effect:none;fill:#6483a2;fill-opacity:1;stroke:#000000;stroke-width:0.57622457;stroke-linecap:butt;stroke-linejoin:miter;stroke-miterlimit:4;stroke-dasharray:none;stroke-dashoffset:0;stroke-opacity:1;marker:none" /><path
     inkscape:connector-curvature="0"
     id="path1613"
     d="M 10.241389,81.656431 C 4.9877823,81.372598 5.5151469,82.196866 5.5151469,74.269337 v -6.764914 l 2.9729585,-0.03459 c 3.3781046,-0.0393 5.3821376,-0.63996 5.1995776,-1.55845 -0.09743,-0.490201 -0.474763,-0.529132 -4.1398707,-0.427131 l -4.0326654,0.112231 0.00265,-1.941744 c 0.00146,-1.067959 0.089177,-2.662114 0.1949318,-3.542567 l 0.1922815,-1.600824 h 1.273661 c 1.5247089,0 4.7956028,-0.56637 5.1309158,-0.888441 0.131276,-0.126092 0.143418,-0.47752 0.02698,-0.780949 -0.192262,-0.501026 -0.501202,-0.533977 -3.3641035,-0.358809 l -3.1524002,0.192882 v -2.274879 -2.274879 l 3.8877149,-0.08534 C 13.458754,51.958599 13.598873,51.931846 13.69152,51.280308 13.823677,50.350919 12.909228,50.168102 8.9983144,50.342039 L 5.8200657,50.48339 v -3.576564 -3.576565 l 2.058202,-0.83205 c 1.1320111,-0.457627 3.2052503,-1.223275 4.6071983,-1.701439 l 2.548996,-0.86939 -0.176085,1.287866 c -0.09685,0.708326 -0.32357,6.913618 -0.50383,13.789537 -0.180259,6.87592 -0.403034,13.767481 -0.495055,15.314582 l -0.167312,2.812909 -1.877855,-0.221063 c -2.6523567,-0.312234 -4.9147625,-0.274305 -4.9974739,0.08378 -0.096054,0.415854 1.1510631,0.718193 3.9312219,0.953051 1.284908,0.108545 2.489938,0.292371 2.677844,0.408503 0.229453,0.141808 0.313393,1.404834 0.255612,3.846121 l -0.08603,3.634971 z"
     style="opacity:1;vector-effect:none;fill:#6483a2;fill-opacity:1;stroke:#000000;stroke-width:0.57622457;stroke-linecap:butt;stroke-linejoin:miter;stroke-miterlimit:4;stroke-dasharray:none;stroke-dashoffset:0;stroke-opacity:1;marker:none" /><path
     inkscape:connector-curvature="0"
     id="path1617"
     d="m 15.68209,146.81902 c 0.110163,-0.82001 0.200297,-1.76404 0.200297,-2.09785 0,-0.54045 0.152837,-0.58971 1.395085,-0.4497 1.058385,0.1193 1.437065,0.0479 1.569026,-0.29603 0.238775,-0.62224 -0.450761,-0.99135 -1.862353,-0.99691 l -1.185132,-0.005 0.201985,-6.32706 c 0.111092,-3.47989 0.470969,-14.55987 0.799728,-24.6222 1.128671,-34.54527 1.226446,-38.158335 1.518291,-56.105058 0.160903,-9.894616 0.205761,-22.047311 0.09968,-27.00599 L 18.22583,19.897441 21.551659,18.91512 c 4.408221,-1.302019 11.143123,-2.638304 16.589798,-3.291613 5.291635,-0.634713 17.171049,-0.713987 21.801695,-0.145488 17.610898,2.162072 31.064105,8.057499 40.665328,17.820243 l 1.94063,1.97328 -0.33821,6.664809 c -0.93766,18.477523 -1.48287,39.438984 -1.86664,71.764979 -0.16226,13.66798 -0.2971,24.91086 -0.29965,24.98416 -0.002,0.0733 -0.38197,-0.22622 -0.84316,-0.6656 -3.3588,-3.19996 -11.435562,-5.71668 -21.268088,-6.62711 -4.344766,-0.4023 -14.884069,-0.39721 -19.362345,0.009 -18.390745,1.66962 -32.276277,6.67285 -40.732367,14.67669 l -2.35686,2.23081 z"
     style="opacity:1;vector-effect:none;fill:#fff4c5;fill-opacity:1;stroke:#000000;stroke-width:0.57622457;stroke-linecap:butt;stroke-linejoin:miter;stroke-miterlimit:4;stroke-dasharray:none;stroke-dashoffset:0;stroke-opacity:1;marker:none" /><path
     inkscape:connector-curvature="0"
     id="path1619"
     d="m 190.60087,138.82265 c -3.09769,-1.30365 -10.18218,-3.52674 -14.02627,-4.4014 -14.69984,-3.34473 -30.09711,-2.95763 -43.49502,1.09348 -1.3659,0.41301 -2.56419,0.75092 -2.66286,0.75092 -0.0987,0 -0.11068,-2.0925 -0.0267,-4.65001 0.64661,-19.68372 1.08378,-98.962967 0.58332,-105.780851 l -0.21128,-2.87827 3.62014,-0.826248 c 1.99108,-0.454436 4.92367,-1.039861 6.51687,-1.300944 4.03262,-0.660839 14.62909,-0.915097 18.95361,-0.454783 7.97859,0.84926 17.17881,3.268358 24.64978,6.481388 2.37724,1.022372 3.7639,1.457585 4.30558,1.351328 l 0.799,-0.156736 0.48859,3.719729 c 1.78316,13.575717 2.09894,26.800143 1.26833,53.116577 -0.75214,23.83061 -0.57237,39.79209 0.5718,50.76898 0.21851,2.09632 0.38488,3.82524 0.36971,3.84205 -0.0152,0.0168 -0.78225,-0.28704 -1.70463,-0.67521 z"
     style="opacity:1;vector-effect:none;fill:#fff4c5;fill-opacity:1;stroke:#000000;stroke-width:0.57622457;stroke-linecap:butt;stroke-linejoin:miter;stroke-miterlimit:4;stroke-dasharray:none;stroke-dashoffset:0;stroke-opacity:1;marker:none" /><g
     id="g1733"><path
       style="fill:#000000;stroke:none;stroke-width:1px;stroke-linecap:butt;stroke-linejoin:miter;stroke-opacity:1"
       d="m 35.675502,43.453615 c -0.0085,-0.329554 11.554126,-1.588649 25.898962,-0.101393 7.308537,0.75774 13.298782,2.043809 17.961591,3.423947 4.496304,1.330855 7.134046,2.562286 7.060894,2.775824 -0.08777,0.25621 -2.864224,-0.547181 -7.378567,-1.548073 C 74.42267,46.940645 68.714359,45.89781 61.389359,45.14285 47.31678,43.692442 35.68834,43.950137 35.675502,43.453615 Z"
       id="path1677"
       inkscape:connector-curvature="0"
       inkscape:path-effect="#path-effect1679;#path-effect1681"
       inkscape:original-d="m 35.675502,43.453615 h 11.281996 c 7.234612,0 10.780024,0.147515 16.499436,0.862441 2.858132,0.357267 6.671403,1.332376 9.418664,1.881829 1.409976,0.281995 3.991052,0.01355 5.18362,0.609837 1.442602,0.721302 -0.339851,0.648408 1.524594,0.914757 0.955141,0.136448 2.155447,-0.05258 3.049188,0.304919 1.623742,0.649496 2.42082,1.524594 3.963945,1.524594"
       sodipodi:nodetypes="cssscscc"
       transform="translate(-4.2043982,-4.5278135)" /><path
       transform="translate(-4.2043982,5.4721865)"
       sodipodi:nodetypes="cssscscc"
       inkscape:original-d="m 35.675502,43.453615 h 11.281996 c 7.234612,0 10.780024,0.147515 16.499436,0.862441 2.858132,0.357267 6.671403,1.332376 9.418664,1.881829 1.409976,0.281995 3.991052,0.01355 5.18362,0.609837 1.442602,0.721302 -0.339851,0.648408 1.524594,0.914757 0.955141,0.136448 2.155447,-0.05258 3.049188,0.304919 1.623742,0.649496 2.42082,1.524594 3.963945,1.524594"
       inkscape:path-effect="#path-effect1685;#path-effect1687"
       inkscape:connector-curvature="0"
       id="path1683"
       d="m 35.675502,43.453615 c -0.0085,-0.329554 11.554126,-1.588649 25.898962,-0.101393 7.308537,0.75774 13.298782,2.043809 17.961591,3.423947 4.496304,1.330855 7.134046,2.562286 7.060894,2.775824 -0.08777,0.25621 -2.864224,-0.547181 -7.378567,-1.548073 C 74.42267,46.940645 68.714359,45.89781 61.389359,45.14285 47.31678,43.692442 35.68834,43.950137 35.675502,43.453615 Z"
       style="fill:#000000;stroke:none;stroke-width:1px;stroke-linecap:butt;stroke-linejoin:miter;stroke-opacity:1" /><path
       style="fill:#000000;stroke:none;stroke-width:1px;stroke-linecap:butt;stroke-linejoin:miter;stroke-opacity:1"
       d="m 35.675502,43.453615 c -0.0085,-0.329554 11.554126,-1.588649 25.898962,-0.101393 7.308537,0.75774 13.298782,2.043809 17.961591,3.423947 4.496304,1.330855 7.134046,2.562286 7.060894,2.775824 -0.08777,0.25621 -2.864224,-0.547181 -7.378567,-1.548073 C 74.42267,46.940645 68.714359,45.89781 61.389359,45.14285 47.31678,43.692442 35.68834,43.950137 35.675502,43.453615 Z"
       id="path1689"
       inkscape:connector-curvature="0"
       inkscape:path-effect="#path-effect1691;#path-effect1693"
       inkscape:original-d="m 35.675502,43.453615 h 11.281996 c 7.234612,0 10.780024,0.147515 16.499436,0.862441 2.858132,0.357267 6.671403,1.332376 9.418664,1.881829 1.409976,0.281995 3.991052,0.01355 5.18362,0.609837 1.442602,0.721302 -0.339851,0.648408 1.524594,0.914757 0.955141,0.136448 2.155447,-0.05258 3.049188,0.304919 1.623742,0.649496 2.42082,1.524594 3.963945,1.524594"
       sodipodi:nodetypes="cssscscc"
       transform="translate(-4.2043982,15.472186)" /><path
       transform="translate(-4.2043982,27.472186)"
       sodipodi:nodetypes="cssscscc"
       inkscape:original-d="m 35.675502,43.453615 h 11.281996 c 7.234612,0 10.780024,0.147515 16.499436,0.862441 2.858132,0.357267 6.671403,1.332376 9.418664,1.881829 1.409976,0.281995 3.991052,0.01355 5.18362,0.609837 1.442602,0.721302 -0.339851,0.648408 1.524594,0.914757 0.955141,0.136448 2.155447,-0.05258 3.049188,0.304919 1.623742,0.649496 2.42082,1.524594 3.963945,1.524594"
       inkscape:path-effect="#path-effect1697;#path-effect1699"
       inkscape:connector-curvature="0"
       id="path1695"
       d="m 35.675502,43.453615 c -0.0085,-0.329554 11.554126,-1.588649 25.898962,-0.101393 7.308537,0.75774 13.298782,2.043809 17.961591,3.423947 4.496304,1.330855 7.134046,2.562286 7.060894,2.775824 -0.08777,0.25621 -2.864224,-0.547181 -7.378567,-1.548073 C 74.42267,46.940645 68.714359,45.89781 61.389359,45.14285 47.31678,43.692442 35.68834,43.950137 35.675502,43.453615 Z"
       style="fill:#000000;stroke:none;stroke-width:1px;stroke-linecap:butt;stroke-linejoin:miter;stroke-opacity:1" /><path
       style="fill:#000000;stroke:none;stroke-width:1px;stroke-linecap:butt;stroke-linejoin:miter;stroke-opacity:1"
       d="m 35.675502,43.453615 c -0.0085,-0.329554 11.554126,-1.588649 25.898962,-0.101393 7.308537,0.75774 13.298782,2.043809 17.961591,3.423947 4.496304,1.330855 7.134046,2.562286 7.060894,2.775824 -0.08777,0.25621 -2.864224,-0.547181 -7.378567,-1.548073 C 74.42267,46.940645 68.714359,45.89781 61.389359,45.14285 47.31678,43.692442 35.68834,43.950137 35.675502,43.453615 Z"
       id="path1701"
       inkscape:connector-curvature="0"
       inkscape:path-effect="#path-effect1703;#path-effect1705"
       inkscape:original-d="m 35.675502,43.453615 h 11.281996 c 7.234612,0 10.780024,0.147515 16.499436,0.862441 2.858132,0.357267 6.671403,1.332376 9.418664,1.881829 1.409976,0.281995 3.991052,0.01355 5.18362,0.609837 1.442602,0.721302 -0.339851,0.648408 1.524594,0.914757 0.955141,0.136448 2.155447,-0.05258 3.049188,0.304919 1.623742,0.649496 2.42082,1.524594 3.963945,1.524594"
       sodipodi:nodetypes="cssscscc"
       transform="translate(-4.2043982,39.472186)" /><path
       transform="translate(-4.2043982,49.472186)"
       sodipodi:nodetypes="cssscscc"
       inkscape:original-d="m 35.675502,43.453615 h 11.281996 c 7.234612,0 10.780024,0.147515 16.499436,0.862441 2.858132,0.357267 6.671403,1.332376 9.418664,1.881829 1.409976,0.281995 3.991052,0.01355 5.18362,0.609837 1.442602,0.721302 -0.339851,0.648408 1.524594,0.914757 0.955141,0.136448 2.155447,-0.05258 3.049188,0.304919 1.623742,0.649496 2.42082,1.524594 3.963945,1.524594"
       inkscape:path-effect="#path-effect1709;#path-effect1711"
       inkscape:connector-curvature="0"
       id="path1707"
       d="m 35.675502,43.453615 c -0.0085,-0.329554 11.554126,-1.588649 25.898962,-0.101393 7.308537,0.75774 13.298782,2.043809 17.961591,3.423947 4.496304,1.330855 7.134046,2.562286 7.060894,2.775824 -0.08777,0.25621 -2.864224,-0.547181 -7.378567,-1.548073 C 74.42267,46.940645 68.714359,45.89781 61.389359,45.14285 47.31678,43.692442 35.68834,43.950137 35.675502,43.453615 Z"
       style="fill:#000000;stroke:none;stroke-width:1px;stroke-linecap:butt;stroke-linejoin:miter;stroke-opacity:1" /><path
       style="fill:#000000;stroke:none;stroke-width:1px;stroke-linecap:butt;stroke-linejoin:miter;stroke-opacity:1"
       d="m 35.675502,43.453615 c -0.0085,-0.329554 11.554126,-1.588649 25.898962,-0.101393 7.308537,0.75774 13.298782,2.043809 17.961591,3.423947 4.496304,1.330855 7.134046,2.562286 7.060894,2.775824 -0.08777,0.25621 -2.864224,-0.547181 -7.378567,-1.548073 C 74.42267,46.940645 68.714359,45.89781 61.389359,45.14285 47.31678,43.692442 35.68834,43.950137 35.675502,43.453615 Z"
       id="path1713"
       inkscape:connector-curvature="0"
       inkscape:path-effect="#path-effect1715;#path-effect1717"
       inkscape:original-d="m 35.675502,43.453615 h 11.281996 c 7.234612,0 10.780024,0.147515 16.499436,0.862441 2.858132,0.357267 6.671403,1.332376 9.418664,1.881829 1.409976,0.281995 3.991052,0.01355 5.18362,0.609837 1.442602,0.721302 -0.339851,0.648408 1.524594,0.914757 0.955141,0.136448 2.155447,-0.05258 3.049188,0.304919 1.623742,0.649496 2.42082,1.524594 3.963945,1.524594"
       sodipodi:nodetypes="cssscscc"
       transform="rotate(-3.5881499,1008.3796,142.97135)" /><path
       transform="rotate(-8.605047,520.73803,108.79912)"
       sodipodi:nodetypes="cssscscc"
       inkscape:original-d="m 35.675502,43.453615 h 11.281996 c 7.234612,0 10.780024,0.147515 16.499436,0.862441 2.858132,0.357267 6.671403,1.332376 9.418664,1.881829 1.409976,0.281995 3.991052,0.01355 5.18362,0.609837 1.442602,0.721302 -0.339851,0.648408 1.524594,0.914757 0.955141,0.136448 2.155447,-0.05258 3.049188,0.304919 1.623742,0.649496 2.42082,1.524594 3.963945,1.524594"
       inkscape:path-effect="#path-effect1721;#path-effect1723"
       inkscape:connector-curvature="0"
       id="path1719"
       d="m 35.675502,43.453615 c -0.0085,-0.329554 11.554126,-1.588649 25.898962,-0.101393 7.308537,0.75774 13.298782,2.043809 17.961591,3.423947 4.496304,1.330855 7.134046,2.562286 7.060894,2.775824 -0.08777,0.25621 -2.864224,-0.547181 -7.378567,-1.548073 C 74.42267,46.940645 68.714359,45.89781 61.389359,45.14285 47.31678,43.692442 35.68834,43.950137 35.675502,43.453615 Z"
       style="fill:#000000;stroke:none;stroke-width:1px;stroke-linecap:butt;stroke-linejoin:miter;stroke-opacity:1" /></g><g
     transform="matrix(-1.0860466,0,0,1,209.54868,2.4393506)"
     id="g1751"><path
       transform="translate(-4.2043982,-4.5278135)"
       sodipodi:nodetypes="cssscscc"
       inkscape:original-d="m 35.675502,43.453615 h 11.281996 c 7.234612,0 10.780024,0.147515 16.499436,0.862441 2.858132,0.357267 6.671403,1.332376 9.418664,1.881829 1.409976,0.281995 3.991052,0.01355 5.18362,0.609837 1.442602,0.721302 -0.339851,0.648408 1.524594,0.914757 0.955141,0.136448 2.155447,-0.05258 3.049188,0.304919 1.623742,0.649496 2.42082,1.524594 3.963945,1.524594"
       inkscape:path-effect="#path-effect1679;#path-effect1681"
       inkscape:connector-curvature="0"
       id="path1735"
       d="m 35.675502,43.453615 c -0.0085,-0.329554 11.554126,-1.588649 25.898962,-0.101393 7.308537,0.75774 13.298782,2.043809 17.961591,3.423947 4.496304,1.330855 7.134046,2.562286 7.060894,2.775824 -0.08777,0.25621 -2.864224,-0.547181 -7.378567,-1.548073 C 74.42267,46.940645 68.714359,45.89781 61.389359,45.14285 47.31678,43.692442 35.68834,43.950137 35.675502,43.453615 Z"
       style="fill:#000000;stroke:none;stroke-width:1px;stroke-linecap:butt;stroke-linejoin:miter;stroke-opacity:1" /><path
       style="fill:#000000;stroke:none;stroke-width:1px;stroke-linecap:butt;stroke-linejoin:miter;stroke-opacity:1"
       d="m 35.675502,43.453615 c -0.0085,-0.329554 11.554126,-1.588649 25.898962,-0.101393 7.308537,0.75774 13.298782,2.043809 17.961591,3.423947 4.496304,1.330855 7.134046,2.562286 7.060894,2.775824 -0.08777,0.25621 -2.864224,-0.547181 -7.378567,-1.548073 C 74.42267,46.940645 68.714359,45.89781 61.389359,45.14285 47.31678,43.692442 35.68834,43.950137 35.675502,43.453615 Z"
       id="path1737"
       inkscape:connector-curvature="0"
       inkscape:path-effect="#path-effect1685;#path-effect1687"
       inkscape:original-d="m 35.675502,43.453615 h 11.281996 c 7.234612,0 10.780024,0.147515 16.499436,0.862441 2.858132,0.357267 6.671403,1.332376 9.418664,1.881829 1.409976,0.281995 3.991052,0.01355 5.18362,0.609837 1.442602,0.721302 -0.339851,0.648408 1.524594,0.914757 0.955141,0.136448 2.155447,-0.05258 3.049188,0.304919 1.623742,0.649496 2.42082,1.524594 3.963945,1.524594"
       sodipodi:nodetypes="cssscscc"
       transform="translate(-4.2043982,5.4721865)" /><path
       transform="translate(-4.2043982,15.472186)"
       sodipodi:nodetypes="cssscscc"
       inkscape:original-d="m 35.675502,43.453615 h 11.281996 c 7.234612,0 10.780024,0.147515 16.499436,0.862441 2.858132,0.357267 6.671403,1.332376 9.418664,1.881829 1.409976,0.281995 3.991052,0.01355 5.18362,0.609837 1.442602,0.721302 -0.339851,0.648408 1.524594,0.914757 0.955141,0.136448 2.155447,-0.05258 3.049188,0.304919 1.623742,0.649496 2.42082,1.524594 3.963945,1.524594"
       inkscape:path-effect="#path-effect1691;#path-effect1693"
       inkscape:connector-curvature="0"
       id="path1739"
       d="m 35.675502,43.453615 c -0.0085,-0.329554 11.554126,-1.588649 25.898962,-0.101393 7.308537,0.75774 13.298782,2.043809 17.961591,3.423947 4.496304,1.330855 7.134046,2.562286 7.060894,2.775824 -0.08777,0.25621 -2.864224,-0.547181 -7.378567,-1.548073 C 74.42267,46.940645 68.714359,45.89781 61.389359,45.14285 47.31678,43.692442 35.68834,43.950137 35.675502,43.453615 Z"
       style="fill:#000000;stroke:none;stroke-width:1px;stroke-linecap:butt;stroke-linejoin:miter;stroke-opacity:1" /><path
       style="fill:#000000;stroke:none;stroke-width:1px;stroke-linecap:butt;stroke-linejoin:miter;stroke-opacity:1"
       d="m 35.675502,43.453615 c -0.0085,-0.329554 11.554126,-1.588649 25.898962,-0.101393 7.308537,0.75774 13.298782,2.043809 17.961591,3.423947 4.496304,1.330855 7.134046,2.562286 7.060894,2.775824 -0.08777,0.25621 -2.864224,-0.547181 -7.378567,-1.548073 C 74.42267,46.940645 68.714359,45.89781 61.389359,45.14285 47.31678,43.692442 35.68834,43.950137 35.675502,43.453615 Z"
       id="path1741"
       inkscape:connector-curvature="0"
       inkscape:path-effect="#path-effect1697;#path-effect1699"
       inkscape:original-d="m 35.675502,43.453615 h 11.281996 c 7.234612,0 10.780024,0.147515 16.499436,0.862441 2.858132,0.357267 6.671403,1.332376 9.418664,1.881829 1.409976,0.281995 3.991052,0.01355 5.18362,0.609837 1.442602,0.721302 -0.339851,0.648408 1.524594,0.914757 0.955141,0.136448 2.155447,-0.05258 3.049188,0.304919 1.623742,0.649496 2.42082,1.524594 3.963945,1.524594"
       sodipodi:nodetypes="cssscscc"
       transform="translate(-4.2043982,27.472186)" /><path
       transform="translate(-4.2043982,39.472186)"
       sodipodi:nodetypes="cssscscc"
       inkscape:original-d="m 35.675502,43.453615 h 11.281996 c 7.234612,0 10.780024,0.147515 16.499436,0.862441 2.858132,0.357267 6.671403,1.332376 9.418664,1.881829 1.409976,0.281995 3.991052,0.01355 5.18362,0.609837 1.442602,0.721302 -0.339851,0.648408 1.524594,0.914757 0.955141,0.136448 2.155447,-0.05258 3.049188,0.304919 1.623742,0.649496 2.42082,1.524594 3.963945,1.524594"
       inkscape:path-effect="#path-effect1703;#path-effect1705"
       inkscape:connector-curvature="0"
       id="path1743"
       d="m 35.675502,43.453615 c -0.0085,-0.329554 11.554126,-1.588649 25.898962,-0.101393 7.308537,0.75774 13.298782,2.043809 17.961591,3.423947 4.496304,1.330855 7.134046,2.562286 7.060894,2.775824 -0.08777,0.25621 -2.864224,-0.547181 -7.378567,-1.548073 C 74.42267,46.940645 68.714359,45.89781 61.389359,45.14285 47.31678,43.692442 35.68834,43.950137 35.675502,43.453615 Z"
       style="fill:#000000;stroke:none;stroke-width:1px;stroke-linecap:butt;stroke-linejoin:miter;stroke-opacity:1" /><path
       style="fill:#000000;stroke:none;stroke-width:1px;stroke-linecap:butt;stroke-linejoin:miter;stroke-opacity:1"
       d="m 35.675502,43.453615 c -0.0085,-0.329554 11.554126,-1.588649 25.898962,-0.101393 7.308537,0.75774 13.298782,2.043809 17.961591,3.423947 4.496304,1.330855 7.134046,2.562286 7.060894,2.775824 -0.08777,0.25621 -2.864224,-0.547181 -7.378567,-1.548073 C 74.42267,46.940645 68.714359,45.89781 61.389359,45.14285 47.31678,43.692442 35.68834,43.950137 35.675502,43.453615 Z"
       id="path1745"
       inkscape:connector-curvature="0"
       inkscape:path-effect="#path-effect1709;#path-effect1711"
       inkscape:original-d="m 35.675502,43.453615 h 11.281996 c 7.234612,0 10.780024,0.147515 16.499436,0.862441 2.858132,0.357267 6.671403,1.332376 9.418664,1.881829 1.409976,0.281995 3.991052,0.01355 5.18362,0.609837 1.442602,0.721302 -0.339851,0.648408 1.524594,0.914757 0.955141,0.136448 2.155447,-0.05258 3.049188,0.304919 1.623742,0.649496 2.42082,1.524594 3.963945,1.524594"
       sodipodi:nodetypes="cssscscc"
       transform="translate(-4.2043982,49.472186)" /><path
       transform="rotate(-3.5881499,1008.3796,142.97135)"
       sodipodi:nodetypes="cssscscc"
       inkscape:original-d="m 35.675502,43.453615 h 11.281996 c 7.234612,0 10.780024,0.147515 16.499436,0.862441 2.858132,0.357267 6.671403,1.332376 9.418664,1.881829 1.409976,0.281995 3.991052,0.01355 5.18362,0.609837 1.442602,0.721302 -0.339851,0.648408 1.524594,0.914757 0.955141,0.136448 2.155447,-0.05258 3.049188,0.304919 1.623742,0.649496 2.42082,1.524594 3.963945,1.524594"
       inkscape:path-effect="#path-effect1715;#path-effect1717"
       inkscape:connector-curvature="0"
       id="path1747"
       d="m 35.675502,43.453615 c -0.0085,-0.329554 11.554126,-1.588649 25.898962,-0.101393 7.308537,0.75774 13.298782,2.043809 17.961591,3.423947 4.496304,1.330855 7.134046,2.562286 7.060894,2.775824 -0.08777,0.25621 -2.864224,-0.547181 -7.378567,-1.548073 C 74.42267,46.940645 68.714359,45.89781 61.389359,45.14285 47.31678,43.692442 35.68834,43.950137 35.675502,43.453615 Z"
       style="fill:#000000;stroke:none;stroke-width:1px;stroke-linecap:butt;stroke-linejoin:miter;stroke-opacity:1" /><path
       style="fill:#000000;stroke:none;stroke-width:1px;stroke-linecap:butt;stroke-linejoin:miter;stroke-opacity:1"
       d="m 35.675502,43.453615 c -0.0085,-0.329554 11.554126,-1.588649 25.898962,-0.101393 7.308537,0.75774 13.298782,2.043809 17.961591,3.423947 4.496304,1.330855 7.134046,2.562286 7.060894,2.775824 -0.08777,0.25621 -2.864224,-0.547181 -7.378567,-1.548073 C 74.42267,46.940645 68.714359,45.89781 61.389359,45.14285 47.31678,43.692442 35.68834,43.950137 35.675502,43.453615 Z"
       id="path1749"
       inkscape:connector-curvature="0"
       inkscape:path-effect="#path-effect1721;#path-effect1723"
       inkscape:original-d="m 35.675502,43.453615 h 11.281996 c 7.234612,0 10.780024,0.147515 16.499436,0.862441 2.858132,0.357267 6.671403,1.332376 9.418664,1.881829 1.409976,0.281995 3.991052,0.01355 5.18362,0.609837 1.442602,0.721302 -0.339851,0.648408 1.524594,0.914757 0.955141,0.136448 2.155447,-0.05258 3.049188,0.304919 1.623742,0.649496 2.42082,1.524594 3.963945,1.524594"
       sodipodi:nodetypes="cssscscc"
       transform="rotate(-8.605047,520.73803,108.79912)" /></g><path
     inkscape:connector-curvature="0"
     id="path1615"
     d="m 125.32868,186.08037 c -1.45849,-1.96523 -9.60167,-9.26052 -10.33681,-9.26052 -0.32912,0 -2.81175,1.88669 -5.51696,4.19264 -2.70521,2.30595 -5.24868,4.4442 -5.65215,4.75167 l -0.73359,0.55904 v -5.38479 c 0,-2.96163 0.3005,-18.99275 0.66778,-35.6247 0.52355,-23.70866 0.67173,-38.94348 0.68607,-70.537677 l 0.0183,-40.29776 3.04919,-1.692154 c 6.48536,-3.599064 17.10045,-8.233172 20.96789,-9.153708 0.82582,-0.196564 0.83996,-0.176935 0.68401,0.949728 -0.24165,1.745883 -1.00848,14.626328 -1.51166,25.391486 -1.10884,23.723114 -1.22776,31.915389 -1.23152,84.843595 -0.002,28.97106 -0.0126,52.67469 -0.0233,52.67472 -0.0108,4e-5 -0.49101,-0.63517 -1.06722,-1.41157 z"
     style="opacity:1;vector-effect:none;fill:#af261e;fill-opacity:1;stroke:#000000;stroke-width:0.57622457;stroke-linecap:butt;stroke-linejoin:miter;stroke-miterlimit:4;stroke-dasharray:none;stroke-dashoffset:0;stroke-opacity:1;marker:none" /></g></svg>